<svg xmlns="http://www.w3.org/2000/svg" xmlns:xlink="http://www.w3.org/1999/xlink" contentStyleType="text/css" height="1369px" preserveAspectRatio="none" style="width:999px;height:1369px;background:#FFFFFF;" version="1.1" viewBox="0 0 999 1369" width="999px" zoomAndPan="magnify"><defs/><g><line style="stroke:#181818;stroke-width:0.5;stroke-dasharray:5.0,5.0;" x1="28" x2="28" y1="81.2969" y2="207.8281"/><line style="stroke:#A80036;stroke-width:1;stroke-dasharray:1.0,4.0;" x1="28" x2="28" y1="207.8281" y2="235.8281"/><line style="stroke:#181818;stroke-width:0.5;stroke-dasharray:5.0,5.0;" x1="28" x2="28" y1="235.8281" y2="381.4922"/><line style="stroke:#A80036;stroke-width:1;stroke-dasharray:1.0,4.0;" x1="28" x2="28" y1="381.4922" y2="409.4922"/><line style="stroke:#181818;stroke-width:0.5;stroke-dasharray:5.0,5.0;" x1="28" x2="28" y1="409.4922" y2="526.0234"/><line style="stroke:#A80036;stroke-width:1;stroke-dasharray:1.0,4.0;" x1="28" x2="28" y1="526.0234" y2="554.0234"/><line style="stroke:#181818;stroke-width:0.5;stroke-dasharray:5.0,5.0;" x1="28" x2="28" y1="554.0234" y2="728.8203"/><line style="stroke:#A80036;stroke-width:1;stroke-dasharray:1.0,4.0;" x1="28" x2="28" y1="728.8203" y2="756.8203"/><line style="stroke:#181818;stroke-width:0.5;stroke-dasharray:5.0,5.0;" x1="28" x2="28" y1="756.8203" y2="989.8828"/><line style="stroke:#A80036;stroke-width:1;stroke-dasharray:1.0,4.0;" x1="28" x2="28" y1="989.8828" y2="1017.8828"/><line style="stroke:#181818;stroke-width:0.5;stroke-dasharray:5.0,5.0;" x1="28" x2="28" y1="1017.8828" y2="1134.4141"/><line style="stroke:#A80036;stroke-width:1;stroke-dasharray:1.0,4.0;" x1="28" x2="28" y1="1134.4141" y2="1162.4141"/><line style="stroke:#181818;stroke-width:0.5;stroke-dasharray:5.0,5.0;" x1="28" x2="28" y1="1162.4141" y2="1288.9453"/><line style="stroke:#181818;stroke-width:0.5;stroke-dasharray:5.0,5.0;" x1="265.9678" x2="265.9678" y1="81.2969" y2="207.8281"/><line style="stroke:#A80036;stroke-width:1;stroke-dasharray:1.0,4.0;" x1="265.9678" x2="265.9678" y1="207.8281" y2="235.8281"/><line style="stroke:#181818;stroke-width:0.5;stroke-dasharray:5.0,5.0;" x1="265.9678" x2="265.9678" y1="235.8281" y2="381.4922"/><line style="stroke:#A80036;stroke-width:1;stroke-dasharray:1.0,4.0;" x1="265.9678" x2="265.9678" y1="381.4922" y2="409.4922"/><line style="stroke:#181818;stroke-width:0.5;stroke-dasharray:5.0,5.0;" x1="265.9678" x2="265.9678" y1="409.4922" y2="526.0234"/><line style="stroke:#A80036;stroke-width:1;stroke-dasharray:1.0,4.0;" x1="265.9678" x2="265.9678" y1="526.0234" y2="554.0234"/><line style="stroke:#181818;stroke-width:0.5;stroke-dasharray:5.0,5.0;" x1="265.9678" x2="265.9678" y1="554.0234" y2="728.8203"/><line style="stroke:#A80036;stroke-width:1;stroke-dasharray:1.0,4.0;" x1="265.9678" x2="265.9678" y1="728.8203" y2="756.8203"/><line style="stroke:#181818;stroke-width:0.5;stroke-dasharray:5.0,5.0;" x1="265.9678" x2="265.9678" y1="756.8203" y2="989.8828"/><line style="stroke:#A80036;stroke-width:1;stroke-dasharray:1.0,4.0;" x1="265.9678" x2="265.9678" y1="989.8828" y2="1017.8828"/><line style="stroke:#181818;stroke-width:0.5;stroke-dasharray:5.0,5.0;" x1="265.9678" x2="265.9678" y1="1017.8828" y2="1134.4141"/><line style="stroke:#A80036;stroke-width:1;stroke-dasharray:1.0,4.0;" x1="265.9678" x2="265.9678" y1="1134.4141" y2="1162.4141"/><line style="stroke:#181818;stroke-width:0.5;stroke-dasharray:5.0,5.0;" x1="265.9678" x2="265.9678" y1="1162.4141" y2="1288.9453"/><line style="stroke:#181818;stroke-width:0.5;stroke-dasharray:5.0,5.0;" x1="424.1841" x2="424.1841" y1="81.2969" y2="207.8281"/><line style="stroke:#A80036;stroke-width:1;stroke-dasharray:1.0,4.0;" x1="424.1841" x2="424.1841" y1="207.8281" y2="235.8281"/><line style="stroke:#181818;stroke-width:0.5;stroke-dasharray:5.0,5.0;" x1="424.1841" x2="424.1841" y1="235.8281" y2="381.4922"/><line style="stroke:#A80036;stroke-width:1;stroke-dasharray:1.0,4.0;" x1="424.1841" x2="424.1841" y1="381.4922" y2="409.4922"/><line style="stroke:#181818;stroke-width:0.5;stroke-dasharray:5.0,5.0;" x1="424.1841" x2="424.1841" y1="409.4922" y2="526.0234"/><line style="stroke:#A80036;stroke-width:1;stroke-dasharray:1.0,4.0;" x1="424.1841" x2="424.1841" y1="526.0234" y2="554.0234"/><line style="stroke:#181818;stroke-width:0.5;stroke-dasharray:5.0,5.0;" x1="424.1841" x2="424.1841" y1="554.0234" y2="728.8203"/><line style="stroke:#A80036;stroke-width:1;stroke-dasharray:1.0,4.0;" x1="424.1841" x2="424.1841" y1="728.8203" y2="756.8203"/><line style="stroke:#181818;stroke-width:0.5;stroke-dasharray:5.0,5.0;" x1="424.1841" x2="424.1841" y1="756.8203" y2="989.8828"/><line style="stroke:#A80036;stroke-width:1;stroke-dasharray:1.0,4.0;" x1="424.1841" x2="424.1841" y1="989.8828" y2="1017.8828"/><line style="stroke:#181818;stroke-width:0.5;stroke-dasharray:5.0,5.0;" x1="424.1841" x2="424.1841" y1="1017.8828" y2="1134.4141"/><line style="stroke:#A80036;stroke-width:1;stroke-dasharray:1.0,4.0;" x1="424.1841" x2="424.1841" y1="1134.4141" y2="1162.4141"/><line style="stroke:#181818;stroke-width:0.5;stroke-dasharray:5.0,5.0;" x1="424.1841" x2="424.1841" y1="1162.4141" y2="1288.9453"/><line style="stroke:#181818;stroke-width:0.5;stroke-dasharray:5.0,5.0;" x1="636.9375" x2="636.9375" y1="81.2969" y2="207.8281"/><line style="stroke:#A80036;stroke-width:1;stroke-dasharray:1.0,4.0;" x1="636.9375" x2="636.9375" y1="207.8281" y2="235.8281"/><line style="stroke:#181818;stroke-width:0.5;stroke-dasharray:5.0,5.0;" x1="636.9375" x2="636.9375" y1="235.8281" y2="381.4922"/><line style="stroke:#A80036;stroke-width:1;stroke-dasharray:1.0,4.0;" x1="636.9375" x2="636.9375" y1="381.4922" y2="409.4922"/><line style="stroke:#181818;stroke-width:0.5;stroke-dasharray:5.0,5.0;" x1="636.9375" x2="636.9375" y1="409.4922" y2="526.0234"/><line style="stroke:#A80036;stroke-width:1;stroke-dasharray:1.0,4.0;" x1="636.9375" x2="636.9375" y1="526.0234" y2="554.0234"/><line style="stroke:#181818;stroke-width:0.5;stroke-dasharray:5.0,5.0;" x1="636.9375" x2="636.9375" y1="554.0234" y2="728.8203"/><line style="stroke:#A80036;stroke-width:1;stroke-dasharray:1.0,4.0;" x1="636.9375" x2="636.9375" y1="728.8203" y2="756.8203"/><line style="stroke:#181818;stroke-width:0.5;stroke-dasharray:5.0,5.0;" x1="636.9375" x2="636.9375" y1="756.8203" y2="989.8828"/><line style="stroke:#A80036;stroke-width:1;stroke-dasharray:1.0,4.0;" x1="636.9375" x2="636.9375" y1="989.8828" y2="1017.8828"/><line style="stroke:#181818;stroke-width:0.5;stroke-dasharray:5.0,5.0;" x1="636.9375" x2="636.9375" y1="1017.8828" y2="1134.4141"/><line style="stroke:#A80036;stroke-width:1;stroke-dasharray:1.0,4.0;" x1="636.9375" x2="636.9375" y1="1134.4141" y2="1162.4141"/><line style="stroke:#181818;stroke-width:0.5;stroke-dasharray:5.0,5.0;" x1="636.9375" x2="636.9375" y1="1162.4141" y2="1288.9453"/><line style="stroke:#181818;stroke-width:0.5;stroke-dasharray:5.0,5.0;" x1="779.0078" x2="779.0078" y1="81.2969" y2="207.8281"/><line style="stroke:#A80036;stroke-width:1;stroke-dasharray:1.0,4.0;" x1="779.0078" x2="779.0078" y1="207.8281" y2="235.8281"/><line style="stroke:#181818;stroke-width:0.5;stroke-dasharray:5.0,5.0;" x1="779.0078" x2="779.0078" y1="235.8281" y2="381.4922"/><line style="stroke:#A80036;stroke-width:1;stroke-dasharray:1.0,4.0;" x1="779.0078" x2="779.0078" y1="381.4922" y2="409.4922"/><line style="stroke:#181818;stroke-width:0.5;stroke-dasharray:5.0,5.0;" x1="779.0078" x2="779.0078" y1="409.4922" y2="526.0234"/><line style="stroke:#A80036;stroke-width:1;stroke-dasharray:1.0,4.0;" x1="779.0078" x2="779.0078" y1="526.0234" y2="554.0234"/><line style="stroke:#181818;stroke-width:0.5;stroke-dasharray:5.0,5.0;" x1="779.0078" x2="779.0078" y1="554.0234" y2="728.8203"/><line style="stroke:#A80036;stroke-width:1;stroke-dasharray:1.0,4.0;" x1="779.0078" x2="779.0078" y1="728.8203" y2="756.8203"/><line style="stroke:#181818;stroke-width:0.5;stroke-dasharray:5.0,5.0;" x1="779.0078" x2="779.0078" y1="756.8203" y2="989.8828"/><line style="stroke:#A80036;stroke-width:1;stroke-dasharray:1.0,4.0;" x1="779.0078" x2="779.0078" y1="989.8828" y2="1017.8828"/><line style="stroke:#181818;stroke-width:0.5;stroke-dasharray:5.0,5.0;" x1="779.0078" x2="779.0078" y1="1017.8828" y2="1134.4141"/><line style="stroke:#A80036;stroke-width:1;stroke-dasharray:1.0,4.0;" x1="779.0078" x2="779.0078" y1="1134.4141" y2="1162.4141"/><line style="stroke:#181818;stroke-width:0.5;stroke-dasharray:5.0,5.0;" x1="779.0078" x2="779.0078" y1="1162.4141" y2="1288.9453"/><line style="stroke:#181818;stroke-width:0.5;stroke-dasharray:5.0,5.0;" x1="945.5742" x2="945.5742" y1="81.2969" y2="207.8281"/><line style="stroke:#A80036;stroke-width:1;stroke-dasharray:1.0,4.0;" x1="945.5742" x2="945.5742" y1="207.8281" y2="235.8281"/><line style="stroke:#181818;stroke-width:0.5;stroke-dasharray:5.0,5.0;" x1="945.5742" x2="945.5742" y1="235.8281" y2="381.4922"/><line style="stroke:#A80036;stroke-width:1;stroke-dasharray:1.0,4.0;" x1="945.5742" x2="945.5742" y1="381.4922" y2="409.4922"/><line style="stroke:#181818;stroke-width:0.5;stroke-dasharray:5.0,5.0;" x1="945.5742" x2="945.5742" y1="409.4922" y2="526.0234"/><line style="stroke:#A80036;stroke-width:1;stroke-dasharray:1.0,4.0;" x1="945.5742" x2="945.5742" y1="526.0234" y2="554.0234"/><line style="stroke:#181818;stroke-width:0.5;stroke-dasharray:5.0,5.0;" x1="945.5742" x2="945.5742" y1="554.0234" y2="728.8203"/><line style="stroke:#A80036;stroke-width:1;stroke-dasharray:1.0,4.0;" x1="945.5742" x2="945.5742" y1="728.8203" y2="756.8203"/><line style="stroke:#181818;stroke-width:0.5;stroke-dasharray:5.0,5.0;" x1="945.5742" x2="945.5742" y1="756.8203" y2="989.8828"/><line style="stroke:#A80036;stroke-width:1;stroke-dasharray:1.0,4.0;" x1="945.5742" x2="945.5742" y1="989.8828" y2="1017.8828"/><line style="stroke:#181818;stroke-width:0.5;stroke-dasharray:5.0,5.0;" x1="945.5742" x2="945.5742" y1="1017.8828" y2="1134.4141"/><line style="stroke:#A80036;stroke-width:1;stroke-dasharray:1.0,4.0;" x1="945.5742" x2="945.5742" y1="1134.4141" y2="1162.4141"/><line style="stroke:#181818;stroke-width:0.5;stroke-dasharray:5.0,5.0;" x1="945.5742" x2="945.5742" y1="1162.4141" y2="1288.9453"/><text fill="#000000" font-family="sans-serif" font-size="14" lengthAdjust="spacing" textLength="40.5303" x="5" y="77.9951">Client</text><ellipse cx="28.2651" cy="13.5" fill="#E2E2F0" rx="8" ry="8" style="stroke:#181818;stroke-width:0.5;"/><path d="M28.2651,21.5 L28.2651,48.5 M15.2651,29.5 L41.2651,29.5 M28.2651,48.5 L15.2651,63.5 M28.2651,48.5 L41.2651,63.5 " fill="none" style="stroke:#181818;stroke-width:0.5;"/><text fill="#000000" font-family="sans-serif" font-size="14" lengthAdjust="spacing" textLength="40.5303" x="5" y="1300.9404">Client</text><ellipse cx="28.2651" cy="1312.7422" fill="#E2E2F0" rx="8" ry="8" style="stroke:#181818;stroke-width:0.5;"/><path d="M28.2651,1320.7422 L28.2651,1347.7422 M15.2651,1328.7422 L41.2651,1328.7422 M28.2651,1347.7422 L15.2651,1362.7422 M28.2651,1347.7422 L41.2651,1362.7422 " fill="none" style="stroke:#181818;stroke-width:0.5;"/><rect fill="#E2E2F0" height="30.2969" rx="2.5" ry="2.5" style="stroke:#181818;stroke-width:0.5;" width="98.5537" x="216.9678" y="50"/><text fill="#000000" font-family="sans-serif" font-size="14" lengthAdjust="spacing" textLength="84.5537" x="223.9678" y="69.9951">AuthService</text><rect fill="#E2E2F0" height="30.2969" rx="2.5" ry="2.5" style="stroke:#181818;stroke-width:0.5;" width="98.5537" x="216.9678" y="1287.9453"/><text fill="#000000" font-family="sans-serif" font-size="14" lengthAdjust="spacing" textLength="84.5537" x="223.9678" y="1307.9404">AuthService</text><rect fill="#E2E2F0" height="30.2969" rx="2.5" ry="2.5" style="stroke:#181818;stroke-width:0.5;" width="133.7451" x="358.1841" y="50"/><text fill="#000000" font-family="sans-serif" font-size="14" lengthAdjust="spacing" textLength="119.7451" x="365.1841" y="69.9951">CustomerService</text><rect fill="#E2E2F0" height="30.2969" rx="2.5" ry="2.5" style="stroke:#181818;stroke-width:0.5;" width="133.7451" x="358.1841" y="1287.9453"/><text fill="#000000" font-family="sans-serif" font-size="14" lengthAdjust="spacing" textLength="119.7451" x="365.1841" y="1307.9404">CustomerService</text><rect fill="#E2E2F0" height="30.2969" rx="2.5" ry="2.5" style="stroke:#181818;stroke-width:0.5;" width="146.0703" x="563.9375" y="50"/><text fill="#000000" font-family="sans-serif" font-size="14" lengthAdjust="spacing" textLength="132.0703" x="570.9375" y="69.9951">NotificationService</text><rect fill="#E2E2F0" height="30.2969" rx="2.5" ry="2.5" style="stroke:#181818;stroke-width:0.5;" width="146.0703" x="563.9375" y="1287.9453"/><text fill="#000000" font-family="sans-serif" font-size="14" lengthAdjust="spacing" textLength="132.0703" x="570.9375" y="1307.9404">NotificationService</text><rect fill="#E2E2F0" height="30.2969" rx="2.5" ry="2.5" style="stroke:#181818;stroke-width:0.5;" width="119.4512" x="720.0078" y="50"/><text fill="#000000" font-family="sans-serif" font-size="14" lengthAdjust="spacing" textLength="105.4512" x="727.0078" y="69.9951">ProductService</text><rect fill="#E2E2F0" height="30.2969" rx="2.5" ry="2.5" style="stroke:#181818;stroke-width:0.5;" width="119.4512" x="720.0078" y="1287.9453"/><text fill="#000000" font-family="sans-serif" font-size="14" lengthAdjust="spacing" textLength="105.4512" x="727.0078" y="1307.9404">ProductService</text><rect fill="#E2E2F0" height="30.2969" rx="2.5" ry="2.5" style="stroke:#181818;stroke-width:0.5;" width="95.3408" x="898.5742" y="50"/><text fill="#000000" font-family="sans-serif" font-size="14" lengthAdjust="spacing" textLength="81.3408" x="905.5742" y="69.9951">CartService</text><rect fill="#E2E2F0" height="30.2969" rx="2.5" ry="2.5" style="stroke:#181818;stroke-width:0.5;" width="95.3408" x="898.5742" y="1287.9453"/><text fill="#000000" font-family="sans-serif" font-size="14" lengthAdjust="spacing" textLength="81.3408" x="905.5742" y="1307.9404">CartService</text><polygon fill="#181818" points="254.2446,108.4297,264.2446,112.4297,254.2446,116.4297,258.2446,112.4297" style="stroke:#181818;stroke-width:1;"/><line style="stroke:#181818;stroke-width:1;" x1="28.2651" x2="260.2446" y1="112.4297" y2="112.4297"/><text fill="#000000" font-family="sans-serif" font-size="13" lengthAdjust="spacing" textLength="213.9795" x="35.2651" y="107.3638">POST /api/v1/users (Create User)</text><polygon fill="#181818" points="39.2651,137.5625,29.2651,141.5625,39.2651,145.5625,35.2651,141.5625" style="stroke:#181818;stroke-width:1;"/><line style="stroke:#181818;stroke-width:1;stroke-dasharray:2.0,2.0;" x1="33.2651" x2="265.2446" y1="141.5625" y2="141.5625"/><text fill="#000000" font-family="sans-serif" font-size="13" lengthAdjust="spacing" textLength="162.792" x="45.2651" y="136.4966">Response (User Created)</text><polygon fill="#181818" points="254.2446,166.6953,264.2446,170.6953,254.2446,174.6953,258.2446,170.6953" style="stroke:#181818;stroke-width:1;"/><line style="stroke:#181818;stroke-width:1;" x1="28.2651" x2="260.2446" y1="170.6953" y2="170.6953"/><text fill="#000000" font-family="sans-serif" font-size="13" lengthAdjust="spacing" textLength="203.9502" x="35.2651" y="165.6294">POST /api/v1/auth/authenticate</text><polygon fill="#181818" points="39.2651,195.8281,29.2651,199.8281,39.2651,203.8281,35.2651,199.8281" style="stroke:#181818;stroke-width:1;"/><line style="stroke:#181818;stroke-width:1;stroke-dasharray:2.0,2.0;" x1="33.2651" x2="265.2446" y1="199.8281" y2="199.8281"/><text fill="#000000" font-family="sans-serif" font-size="13" lengthAdjust="spacing" textLength="165.585" x="45.2651" y="194.7622">Response (Token/Failure)</text><polygon fill="#181818" points="413.0566,252.9609,423.0566,256.9609,413.0566,260.9609,417.0566,256.9609" style="stroke:#181818;stroke-width:1;"/><line style="stroke:#181818;stroke-width:1;" x1="28.2651" x2="419.0566" y1="256.9609" y2="256.9609"/><text fill="#000000" font-family="sans-serif" font-size="13" lengthAdjust="spacing" textLength="290.9829" x="35.2651" y="251.895">POST /api/v1/customers (Register Customer)</text><polygon fill="#181818" points="624.9727,282.0938,634.9727,286.0938,624.9727,290.0938,628.9727,286.0938" style="stroke:#181818;stroke-width:1;"/><line style="stroke:#181818;stroke-width:1;" x1="425.0566" x2="630.9727" y1="286.0938" y2="286.0938"/><text fill="#000000" font-family="sans-serif" font-size="13" lengthAdjust="spacing" textLength="187.916" x="432.0566" y="281.0278">Send notification (RabbitMQ)</text><polygon fill="#181818" points="39.2651,311.2266,29.2651,315.2266,39.2651,319.2266,35.2651,315.2266" style="stroke:#181818;stroke-width:1;"/><line style="stroke:#181818;stroke-width:1;stroke-dasharray:2.0,2.0;" x1="33.2651" x2="424.0566" y1="315.2266" y2="315.2266"/><text fill="#000000" font-family="sans-serif" font-size="13" lengthAdjust="spacing" textLength="196.3076" x="45.2651" y="310.1606">Response (Customer Created)</text><polygon fill="#181818" points="413.0566,340.3594,423.0566,344.3594,413.0566,348.3594,417.0566,344.3594" style="stroke:#181818;stroke-width:1;"/><line style="stroke:#181818;stroke-width:1;" x1="28.2651" x2="419.0566" y1="344.3594" y2="344.3594"/><text fill="#000000" font-family="sans-serif" font-size="13" lengthAdjust="spacing" textLength="284.7939" x="35.2651" y="339.2935">GET /api/v1/customers/{id} (Get Customer)</text><polygon fill="#181818" points="39.2651,369.4922,29.2651,373.4922,39.2651,377.4922,35.2651,373.4922" style="stroke:#181818;stroke-width:1;"/><line style="stroke:#181818;stroke-width:1;stroke-dasharray:2.0,2.0;" x1="33.2651" x2="424.0566" y1="373.4922" y2="373.4922"/><text fill="#000000" font-family="sans-serif" font-size="13" lengthAdjust="spacing" textLength="175.6143" x="45.2651" y="368.4263">Response (Customer Data)</text><polygon fill="#181818" points="413.0566,426.625,423.0566,430.625,413.0566,434.625,417.0566,430.625" style="stroke:#181818;stroke-width:1;"/><line style="stroke:#181818;stroke-width:1;" x1="28.2651" x2="419.0566" y1="430.625" y2="430.625"/><text fill="#000000" font-family="sans-serif" font-size="13" lengthAdjust="spacing" textLength="372.7915" x="35.2651" y="425.5591">POST /api/v1/customers/{id}/addresses (Create Address)</text><polygon fill="#181818" points="39.2651,455.7578,29.2651,459.7578,39.2651,463.7578,35.2651,459.7578" style="stroke:#181818;stroke-width:1;"/><line style="stroke:#181818;stroke-width:1;stroke-dasharray:2.0,2.0;" x1="33.2651" x2="424.0566" y1="459.7578" y2="459.7578"/><text fill="#000000" font-family="sans-serif" font-size="13" lengthAdjust="spacing" textLength="185.4468" x="45.2651" y="454.6919">Response (Address Created)</text><polygon fill="#181818" points="413.0566,484.8906,423.0566,488.8906,413.0566,492.8906,417.0566,488.8906" style="stroke:#181818;stroke-width:1;"/><line style="stroke:#181818;stroke-width:1;" x1="28.2651" x2="419.0566" y1="488.8906" y2="488.8906"/><text fill="#000000" font-family="sans-serif" font-size="13" lengthAdjust="spacing" textLength="371.2998" x="35.2651" y="483.8247">GET /api/v1/customers/{id}/addresses (Get Address List)</text><polygon fill="#181818" points="39.2651,514.0234,29.2651,518.0234,39.2651,522.0234,35.2651,518.0234" style="stroke:#181818;stroke-width:1;"/><line style="stroke:#181818;stroke-width:1;stroke-dasharray:2.0,2.0;" x1="33.2651" x2="424.0566" y1="518.0234" y2="518.0234"/><text fill="#000000" font-family="sans-serif" font-size="13" lengthAdjust="spacing" textLength="156.438" x="45.2651" y="512.9575">Response (Address List)</text><polygon fill="#181818" points="767.7334,571.1563,777.7334,575.1563,767.7334,579.1563,771.7334,575.1563" style="stroke:#181818;stroke-width:1;"/><line style="stroke:#181818;stroke-width:1;" x1="28.2651" x2="773.7334" y1="575.1563" y2="575.1563"/><text fill="#000000" font-family="sans-serif" font-size="13" lengthAdjust="spacing" textLength="266.7793" x="35.2651" y="570.0903">POST /api/v1/products (Register Product)</text><polygon fill="#181818" points="39.2651,600.2891,29.2651,604.2891,39.2651,608.2891,35.2651,604.2891" style="stroke:#181818;stroke-width:1;"/><line style="stroke:#181818;stroke-width:1;stroke-dasharray:2.0,2.0;" x1="33.2651" x2="778.7334" y1="604.2891" y2="604.2891"/><text fill="#000000" font-family="sans-serif" font-size="13" lengthAdjust="spacing" textLength="183.0347" x="45.2651" y="599.2231">Response (Product Created)</text><polygon fill="#181818" points="767.7334,629.4219,777.7334,633.4219,767.7334,637.4219,771.7334,633.4219" style="stroke:#181818;stroke-width:1;"/><line style="stroke:#181818;stroke-width:1;" x1="28.2651" x2="773.7334" y1="633.4219" y2="633.4219"/><text fill="#000000" font-family="sans-serif" font-size="13" lengthAdjust="spacing" textLength="260.5903" x="35.2651" y="628.356">GET /api/v1/products/{id} (Get Product)</text><polygon fill="#181818" points="39.2651,658.5547,29.2651,662.5547,39.2651,666.5547,35.2651,662.5547" style="stroke:#181818;stroke-width:1;"/><line style="stroke:#181818;stroke-width:1;stroke-dasharray:2.0,2.0;" x1="33.2651" x2="778.7334" y1="662.5547" y2="662.5547"/><text fill="#000000" font-family="sans-serif" font-size="13" lengthAdjust="spacing" textLength="162.3413" x="45.2651" y="657.4888">Response (Product Data)</text><polygon fill="#181818" points="767.7334,687.6875,777.7334,691.6875,767.7334,695.6875,771.7334,691.6875" style="stroke:#181818;stroke-width:1;"/><line style="stroke:#181818;stroke-width:1;" x1="28.2651" x2="773.7334" y1="691.6875" y2="691.6875"/><text fill="#000000" font-family="sans-serif" font-size="13" lengthAdjust="spacing" textLength="254.6616" x="35.2651" y="686.6216">GET /api/v1/products (Get Product List)</text><polygon fill="#181818" points="39.2651,716.8203,29.2651,720.8203,39.2651,724.8203,35.2651,720.8203" style="stroke:#181818;stroke-width:1;"/><line style="stroke:#181818;stroke-width:1;stroke-dasharray:2.0,2.0;" x1="33.2651" x2="778.7334" y1="720.8203" y2="720.8203"/><text fill="#000000" font-family="sans-serif" font-size="13" lengthAdjust="spacing" textLength="154.0259" x="45.2651" y="715.7544">Response (Product List)</text><polygon fill="#181818" points="934.2446,773.9531,944.2446,777.9531,934.2446,781.9531,938.2446,777.9531" style="stroke:#181818;stroke-width:1;"/><line style="stroke:#181818;stroke-width:1;" x1="28.2651" x2="940.2446" y1="777.9531" y2="777.9531"/><text fill="#000000" font-family="sans-serif" font-size="13" lengthAdjust="spacing" textLength="209.0347" x="35.2651" y="772.8872">POST /api/v1/carts (Create Cart)</text><polygon fill="#181818" points="436.0566,803.0859,426.0566,807.0859,436.0566,811.0859,432.0566,807.0859" style="stroke:#181818;stroke-width:1;"/><line style="stroke:#181818;stroke-width:1;" x1="430.0566" x2="945.2446" y1="807.0859" y2="807.0859"/><text fill="#000000" font-family="sans-serif" font-size="13" lengthAdjust="spacing" textLength="120.6753" x="442.0566" y="802.02">Validate Customer</text><polygon fill="#181818" points="934.2446,832.2188,944.2446,836.2188,934.2446,840.2188,938.2446,836.2188" style="stroke:#181818;stroke-width:1;"/><line style="stroke:#181818;stroke-width:1;stroke-dasharray:2.0,2.0;" x1="425.0566" x2="940.2446" y1="836.2188" y2="836.2188"/><text fill="#000000" font-family="sans-serif" font-size="13" lengthAdjust="spacing" textLength="128.9272" x="432.0566" y="831.1528">Customer Validated</text><polygon fill="#181818" points="790.7334,861.3516,780.7334,865.3516,790.7334,869.3516,786.7334,865.3516" style="stroke:#181818;stroke-width:1;"/><line style="stroke:#181818;stroke-width:1;" x1="784.7334" x2="945.2446" y1="865.3516" y2="865.3516"/><text fill="#000000" font-family="sans-serif" font-size="13" lengthAdjust="spacing" textLength="134.2593" x="796.7334" y="860.2856">Validate Product List</text><polygon fill="#181818" points="934.2446,890.4844,944.2446,894.4844,934.2446,898.4844,938.2446,894.4844" style="stroke:#181818;stroke-width:1;"/><line style="stroke:#181818;stroke-width:1;stroke-dasharray:2.0,2.0;" x1="779.7334" x2="940.2446" y1="894.4844" y2="894.4844"/><text fill="#000000" font-family="sans-serif" font-size="13" lengthAdjust="spacing" textLength="142.5112" x="786.7334" y="889.4185">Product List Validated</text><polygon fill="#181818" points="39.2651,919.6172,29.2651,923.6172,39.2651,927.6172,35.2651,923.6172" style="stroke:#181818;stroke-width:1;"/><line style="stroke:#181818;stroke-width:1;stroke-dasharray:2.0,2.0;" x1="33.2651" x2="945.2446" y1="923.6172" y2="923.6172"/><text fill="#000000" font-family="sans-serif" font-size="13" lengthAdjust="spacing" textLength="160.6465" x="45.2651" y="918.5513">Response (Cart Created)</text><polygon fill="#181818" points="934.2446,948.75,944.2446,952.75,934.2446,956.75,938.2446,952.75" style="stroke:#181818;stroke-width:1;"/><line style="stroke:#181818;stroke-width:1;" x1="28.2651" x2="940.2446" y1="952.75" y2="952.75"/><text fill="#000000" font-family="sans-serif" font-size="13" lengthAdjust="spacing" textLength="213.4717" x="35.2651" y="947.6841">GET /api/v1/carts/{id} (Get Cart)</text><polygon fill="#181818" points="39.2651,977.8828,29.2651,981.8828,39.2651,985.8828,35.2651,981.8828" style="stroke:#181818;stroke-width:1;"/><line style="stroke:#181818;stroke-width:1;stroke-dasharray:2.0,2.0;" x1="33.2651" x2="945.2446" y1="981.8828" y2="981.8828"/><text fill="#000000" font-family="sans-serif" font-size="13" lengthAdjust="spacing" textLength="139.9531" x="45.2651" y="976.8169">Response (Cart Data)</text><polygon fill="#181818" points="934.2446,1035.0156,944.2446,1039.0156,934.2446,1043.0156,938.2446,1039.0156" style="stroke:#181818;stroke-width:1;"/><line style="stroke:#181818;stroke-width:1;" x1="28.2651" x2="940.2446" y1="1039.0156" y2="1039.0156"/><text fill="#000000" font-family="sans-serif" font-size="13" lengthAdjust="spacing" textLength="269.769" x="35.2651" y="1033.9497">POST /api/v1/carts/{id}/add (Add to Cart)</text><polygon fill="#181818" points="790.7334,1064.1484,780.7334,1068.1484,790.7334,1072.1484,786.7334,1068.1484" style="stroke:#181818;stroke-width:1;"/><line style="stroke:#181818;stroke-width:1;" x1="784.7334" x2="945.2446" y1="1068.1484" y2="1068.1484"/><text fill="#000000" font-family="sans-serif" font-size="13" lengthAdjust="spacing" textLength="107.4023" x="796.7334" y="1063.0825">Validate Product</text><polygon fill="#181818" points="934.2446,1093.2813,944.2446,1097.2813,934.2446,1101.2813,938.2446,1097.2813" style="stroke:#181818;stroke-width:1;"/><line style="stroke:#181818;stroke-width:1;stroke-dasharray:2.0,2.0;" x1="779.7334" x2="940.2446" y1="1097.2813" y2="1097.2813"/><text fill="#000000" font-family="sans-serif" font-size="13" lengthAdjust="spacing" textLength="115.6543" x="786.7334" y="1092.2153">Product Validated</text><polygon fill="#181818" points="39.2651,1122.4141,29.2651,1126.4141,39.2651,1130.4141,35.2651,1126.4141" style="stroke:#181818;stroke-width:1;"/><line style="stroke:#181818;stroke-width:1;stroke-dasharray:2.0,2.0;" x1="33.2651" x2="945.2446" y1="1126.4141" y2="1126.4141"/><text fill="#000000" font-family="sans-serif" font-size="13" lengthAdjust="spacing" textLength="152.6675" x="45.2651" y="1121.3481">Response (Item Added)</text><polygon fill="#181818" points="934.2446,1179.5469,944.2446,1183.5469,934.2446,1187.5469,938.2446,1183.5469" style="stroke:#181818;stroke-width:1;"/><line style="stroke:#181818;stroke-width:1;" x1="28.2651" x2="940.2446" y1="1183.5469" y2="1183.5469"/><text fill="#000000" font-family="sans-serif" font-size="13" lengthAdjust="spacing" textLength="355.9512" x="35.2651" y="1178.481">DELETE /api/v1/carts/{id}/remove (Remove from Cart)</text><polygon fill="#181818" points="790.7334,1208.6797,780.7334,1212.6797,790.7334,1216.6797,786.7334,1212.6797" style="stroke:#181818;stroke-width:1;"/><line style="stroke:#181818;stroke-width:1;" x1="784.7334" x2="945.2446" y1="1212.6797" y2="1212.6797"/><text fill="#000000" font-family="sans-serif" font-size="13" lengthAdjust="spacing" textLength="107.4023" x="796.7334" y="1207.6138">Validate Product</text><polygon fill="#181818" points="934.2446,1237.8125,944.2446,1241.8125,934.2446,1245.8125,938.2446,1241.8125" style="stroke:#181818;stroke-width:1;"/><line style="stroke:#181818;stroke-width:1;stroke-dasharray:2.0,2.0;" x1="779.7334" x2="940.2446" y1="1241.8125" y2="1241.8125"/><text fill="#000000" font-family="sans-serif" font-size="13" lengthAdjust="spacing" textLength="115.6543" x="786.7334" y="1236.7466">Product Validated</text><polygon fill="#181818" points="39.2651,1266.9453,29.2651,1270.9453,39.2651,1274.9453,35.2651,1270.9453" style="stroke:#181818;stroke-width:1;"/><line style="stroke:#181818;stroke-width:1;stroke-dasharray:2.0,2.0;" x1="33.2651" x2="945.2446" y1="1270.9453" y2="1270.9453"/><text fill="#000000" font-family="sans-serif" font-size="13" lengthAdjust="spacing" textLength="172.6118" x="45.2651" y="1265.8794">Response (Item Removed)</text><!--SRC=[pLHDKy8m4BttL-H83z3noi4P1YhZ32e2UW_DeXbfqqbJBex_tQGVaCPjRV7YXO_isttxNdP38oKacHyv9CfBgLGyuYbD59dbwdqByiGZQ9pFyqo962GMUnIA7tX45HS95bzBmV98eMNrx_hSAziXurkxYobPFsrt9A0f3qutGPw1pCXeBe4g82_wd-zPQ3BMsMMTATb0beea0p8oE5BcCByV4TMHuaCZZJReGRCJ7v04TvGVSmcQPpAPs6IEXmvXL4MrkWsyyKoPbgipttDoJJd4zYdPGi98OaLqDRhVS_NmZ1H1LTGerB0V6fOX8Y7uvEoBZ9QWkYHqio-eebTxM3GGKCOaP1bS1cPMdlHjfeB_rGcx4UD9NNQbRtbeAsMEQqjpnHnNqZ9e3rQ5zxrcOWjt1K9jS9bj5sfYQnok8wvcOHXhWx3oRH0hRhNrPBdJfoENKJCuVRaND3eqh_J8MG6l8lWus9pd3QbpcSlYkdCciPMXNZIqMU0sBdo5DG9V6RjyOrsCS_QZyTExTgQMXwBxcivxMMmMKGA_hz-Sx6tY4F_k5SJcZIZSwvAr25VXBiI4IOZ52Sp25zy7AUB_9h1iZVdV]--></g></svg>